<mxfile host="Electron" agent="Mozilla/5.0 (X11; Linux x86_64) AppleWebKit/537.36 (KHTML, like Gecko) draw.io/24.7.17 Chrome/128.0.6613.36 Electron/32.0.1 Safari/537.36" version="24.7.17">
  <diagram name="Page-1" id="4Zne5KUVwLLqnhsAa_u6">
    <mxGraphModel dx="1485" dy="1369" grid="1" gridSize="10" guides="1" tooltips="1" connect="1" arrows="1" fold="1" page="1" pageScale="1" pageWidth="850" pageHeight="1100" math="0" shadow="0">
      <root>
        <mxCell id="0" />
        <mxCell id="1" parent="0" />
        <mxCell id="5xbRwKJ2WwBKWeslkSZ9-14" value="&lt;p style=&quot;margin:0px;margin-top:6px;text-align:center;&quot;&gt;&lt;b&gt;WebApp &amp;lt;&amp;lt;subsystem&amp;gt;&amp;gt;&lt;/b&gt;&lt;/p&gt;&lt;hr size=&quot;1&quot; style=&quot;border-style:solid;&quot;&gt;&lt;p style=&quot;margin:0px;margin-left:8px;&quot;&gt;&lt;br&gt;&lt;/p&gt;" style="align=left;overflow=fill;html=1;dropTarget=0;whiteSpace=wrap;" vertex="1" parent="1">
          <mxGeometry x="210" y="60" width="470" height="580" as="geometry" />
        </mxCell>
        <mxCell id="5xbRwKJ2WwBKWeslkSZ9-15" value="" style="shape=component;jettyWidth=8;jettyHeight=4;" vertex="1" parent="5xbRwKJ2WwBKWeslkSZ9-14">
          <mxGeometry x="1" width="20" height="20" relative="1" as="geometry">
            <mxPoint x="-24" y="4" as="offset" />
          </mxGeometry>
        </mxCell>
        <mxCell id="5xbRwKJ2WwBKWeslkSZ9-16" value="&lt;b&gt;:DataImporter&lt;/b&gt;" style="html=1;dropTarget=0;whiteSpace=wrap;" vertex="1" parent="1">
          <mxGeometry x="320" y="120" width="155" height="70" as="geometry" />
        </mxCell>
        <mxCell id="5xbRwKJ2WwBKWeslkSZ9-17" value="" style="shape=module;jettyWidth=8;jettyHeight=4;" vertex="1" parent="5xbRwKJ2WwBKWeslkSZ9-16">
          <mxGeometry x="1" width="20" height="20" relative="1" as="geometry">
            <mxPoint x="-27" y="7" as="offset" />
          </mxGeometry>
        </mxCell>
        <mxCell id="5xbRwKJ2WwBKWeslkSZ9-18" value="&lt;b&gt;:NetworkVisualisation&lt;/b&gt;&lt;span style=&quot;color: rgba(0, 0, 0, 0); font-family: monospace; font-size: 0px; text-align: start; text-wrap: nowrap;&quot;&gt;%3CmxGraphModel%3E%3Croot%3E%3CmxCell%20id%3D%220%22%2F%3E%3CmxCell%20id%3D%221%22%20parent%3D%220%22%2F%3E%3CmxCell%20id%3D%222%22%20value%3D%22%26lt%3Bb%26gt%3B%3ADataImporter%26lt%3B%2Fb%26gt%3B%22%20style%3D%22html%3D1%3BdropTarget%3D0%3BwhiteSpace%3Dwrap%3B%22%20vertex%3D%221%22%20parent%3D%221%22%3E%3CmxGeometry%20x%3D%22160%22%20y%3D%22270%22%20width%3D%22155%22%20height%3D%2270%22%20as%3D%22geometry%22%2F%3E%3C%2FmxCell%3E%3CmxCell%20id%3D%223%22%20value%3D%22%22%20style%3D%22shape%3Dmodule%3BjettyWidth%3D8%3BjettyHeight%3D4%3B%22%20vertex%3D%221%22%20parent%3D%222%22%3E%3CmxGeometry%20x%3D%221%22%20width%3D%2220%22%20height%3D%2220%22%20relative%3D%221%22%20as%3D%22geometry%22%3E%3CmxPoint%20x%3D%22-27%22%20y%3D%227%22%20as%3D%22offset%22%2F%3E%3C%2FmxGeometry%3E%3C%2FmxCell%3E%3C%2Froot%3E%3C%2FmxGraphModel%3E&lt;/span&gt;" style="html=1;dropTarget=0;whiteSpace=wrap;" vertex="1" parent="1">
          <mxGeometry x="320" y="250" width="155" height="70" as="geometry" />
        </mxCell>
        <mxCell id="5xbRwKJ2WwBKWeslkSZ9-19" value="" style="shape=module;jettyWidth=8;jettyHeight=4;" vertex="1" parent="5xbRwKJ2WwBKWeslkSZ9-18">
          <mxGeometry x="1" width="20" height="20" relative="1" as="geometry">
            <mxPoint x="-27" y="7" as="offset" />
          </mxGeometry>
        </mxCell>
        <mxCell id="5xbRwKJ2WwBKWeslkSZ9-20" value="&lt;b&gt;:ReportGenerator&lt;/b&gt;" style="html=1;dropTarget=0;whiteSpace=wrap;" vertex="1" parent="1">
          <mxGeometry x="320" y="365" width="155" height="70" as="geometry" />
        </mxCell>
        <mxCell id="5xbRwKJ2WwBKWeslkSZ9-21" value="" style="shape=module;jettyWidth=8;jettyHeight=4;" vertex="1" parent="5xbRwKJ2WwBKWeslkSZ9-20">
          <mxGeometry x="1" width="20" height="20" relative="1" as="geometry">
            <mxPoint x="-27" y="7" as="offset" />
          </mxGeometry>
        </mxCell>
        <mxCell id="5xbRwKJ2WwBKWeslkSZ9-22" value="&lt;b&gt;:OptimisationGUI&lt;/b&gt;" style="html=1;dropTarget=0;whiteSpace=wrap;" vertex="1" parent="1">
          <mxGeometry x="320" y="470" width="155" height="90" as="geometry" />
        </mxCell>
        <mxCell id="5xbRwKJ2WwBKWeslkSZ9-23" value="" style="shape=module;jettyWidth=8;jettyHeight=4;" vertex="1" parent="5xbRwKJ2WwBKWeslkSZ9-22">
          <mxGeometry x="1" width="20" height="20" relative="1" as="geometry">
            <mxPoint x="-27" y="7" as="offset" />
          </mxGeometry>
        </mxCell>
        <mxCell id="5xbRwKJ2WwBKWeslkSZ9-121" style="edgeStyle=orthogonalEdgeStyle;rounded=0;orthogonalLoop=1;jettySize=auto;html=1;exitX=1;exitY=0.5;exitDx=0;exitDy=0;endArrow=none;endFill=0;" edge="1" parent="1" source="5xbRwKJ2WwBKWeslkSZ9-27" target="5xbRwKJ2WwBKWeslkSZ9-120">
          <mxGeometry relative="1" as="geometry" />
        </mxCell>
        <mxCell id="5xbRwKJ2WwBKWeslkSZ9-27" value="" style="html=1;rounded=0;" vertex="1" parent="1">
          <mxGeometry x="180" y="140" width="30" height="30" as="geometry" />
        </mxCell>
        <mxCell id="5xbRwKJ2WwBKWeslkSZ9-28" value="" style="endArrow=none;html=1;rounded=0;align=center;verticalAlign=top;endFill=0;labelBackgroundColor=none;endSize=2;" edge="1" source="5xbRwKJ2WwBKWeslkSZ9-27" target="5xbRwKJ2WwBKWeslkSZ9-29" parent="1">
          <mxGeometry relative="1" as="geometry" />
        </mxCell>
        <mxCell id="5xbRwKJ2WwBKWeslkSZ9-29" value="Data Importer&lt;div&gt;View&lt;/div&gt;" style="ellipse;html=1;fontSize=11;align=center;fillColor=none;points=[];aspect=fixed;resizable=0;verticalAlign=bottom;labelPosition=center;verticalLabelPosition=top;flipH=1;" vertex="1" parent="1">
          <mxGeometry x="120" y="151" width="8" height="8" as="geometry" />
        </mxCell>
        <mxCell id="5xbRwKJ2WwBKWeslkSZ9-31" value="" style="endArrow=none;html=1;rounded=0;align=center;verticalAlign=top;endFill=0;labelBackgroundColor=none;endSize=2;entryX=0.085;entryY=0.164;entryDx=0;entryDy=0;entryPerimeter=0;" edge="1" target="5xbRwKJ2WwBKWeslkSZ9-14" parent="1">
          <mxGeometry relative="1" as="geometry">
            <mxPoint x="250" y="155" as="sourcePoint" />
          </mxGeometry>
        </mxCell>
        <mxCell id="5xbRwKJ2WwBKWeslkSZ9-34" value="" style="fontStyle=0;labelPosition=right;verticalLabelPosition=middle;align=left;verticalAlign=middle;spacingLeft=2;" vertex="1" parent="1">
          <mxGeometry x="290" y="140" width="30" height="30" as="geometry" />
        </mxCell>
        <mxCell id="5xbRwKJ2WwBKWeslkSZ9-40" value="" style="ellipse;whiteSpace=wrap;html=1;align=center;aspect=fixed;fillColor=none;strokeColor=none;resizable=0;perimeter=centerPerimeter;rotatable=0;allowArrows=0;points=[];outlineConnect=1;" vertex="1" parent="1">
          <mxGeometry x="250" y="150" width="10" height="10" as="geometry" />
        </mxCell>
        <mxCell id="5xbRwKJ2WwBKWeslkSZ9-41" value="" style="html=1;rounded=0;" vertex="1" parent="1">
          <mxGeometry x="475" y="260" width="30" height="30" as="geometry" />
        </mxCell>
        <mxCell id="5xbRwKJ2WwBKWeslkSZ9-42" value="" style="endArrow=none;html=1;rounded=0;align=center;verticalAlign=top;endFill=0;labelBackgroundColor=none;endSize=2;" edge="1" source="5xbRwKJ2WwBKWeslkSZ9-41" target="5xbRwKJ2WwBKWeslkSZ9-43" parent="1">
          <mxGeometry relative="1" as="geometry" />
        </mxCell>
        <mxCell id="5xbRwKJ2WwBKWeslkSZ9-43" value="" style="shape=requiredInterface;html=1;fontSize=11;align=center;fillColor=none;points=[];aspect=fixed;resizable=0;verticalAlign=bottom;labelPosition=center;verticalLabelPosition=top;flipH=1;" vertex="1" parent="1">
          <mxGeometry x="530" y="270" width="5" height="10" as="geometry" />
        </mxCell>
        <mxCell id="5xbRwKJ2WwBKWeslkSZ9-44" value="" style="html=1;rounded=0;" vertex="1" parent="1">
          <mxGeometry x="475" y="380" width="30" height="30" as="geometry" />
        </mxCell>
        <mxCell id="5xbRwKJ2WwBKWeslkSZ9-45" value="" style="endArrow=none;html=1;rounded=0;align=center;verticalAlign=top;endFill=0;labelBackgroundColor=none;endSize=2;" edge="1" source="5xbRwKJ2WwBKWeslkSZ9-44" target="5xbRwKJ2WwBKWeslkSZ9-46" parent="1">
          <mxGeometry relative="1" as="geometry" />
        </mxCell>
        <mxCell id="5xbRwKJ2WwBKWeslkSZ9-46" value="" style="shape=requiredInterface;html=1;fontSize=11;align=center;fillColor=none;points=[];aspect=fixed;resizable=0;verticalAlign=bottom;labelPosition=center;verticalLabelPosition=top;flipH=1;" vertex="1" parent="1">
          <mxGeometry x="530" y="390" width="5" height="10" as="geometry" />
        </mxCell>
        <mxCell id="5xbRwKJ2WwBKWeslkSZ9-47" value="" style="html=1;rounded=0;" vertex="1" parent="1">
          <mxGeometry x="475" y="480" width="30" height="30" as="geometry" />
        </mxCell>
        <mxCell id="5xbRwKJ2WwBKWeslkSZ9-48" value="" style="endArrow=none;html=1;rounded=0;align=center;verticalAlign=top;endFill=0;labelBackgroundColor=none;endSize=2;" edge="1" source="5xbRwKJ2WwBKWeslkSZ9-47" target="5xbRwKJ2WwBKWeslkSZ9-49" parent="1">
          <mxGeometry relative="1" as="geometry" />
        </mxCell>
        <mxCell id="5xbRwKJ2WwBKWeslkSZ9-49" value="" style="shape=requiredInterface;html=1;fontSize=11;align=center;fillColor=none;points=[];aspect=fixed;resizable=0;verticalAlign=bottom;labelPosition=center;verticalLabelPosition=top;flipH=1;" vertex="1" parent="1">
          <mxGeometry x="530" y="490" width="5" height="10" as="geometry" />
        </mxCell>
        <mxCell id="5xbRwKJ2WwBKWeslkSZ9-50" value="" style="html=1;rounded=0;" vertex="1" parent="1">
          <mxGeometry x="475" y="130" width="30" height="30" as="geometry" />
        </mxCell>
        <mxCell id="5xbRwKJ2WwBKWeslkSZ9-51" value="" style="endArrow=none;html=1;rounded=0;align=center;verticalAlign=top;endFill=0;labelBackgroundColor=none;endSize=2;" edge="1" source="5xbRwKJ2WwBKWeslkSZ9-50" target="5xbRwKJ2WwBKWeslkSZ9-52" parent="1">
          <mxGeometry relative="1" as="geometry" />
        </mxCell>
        <mxCell id="5xbRwKJ2WwBKWeslkSZ9-52" value="" style="ellipse;html=1;fontSize=11;align=center;fillColor=none;points=[];aspect=fixed;resizable=0;verticalAlign=bottom;labelPosition=center;verticalLabelPosition=top;flipH=1;" vertex="1" parent="1">
          <mxGeometry x="527" y="141" width="8" height="8" as="geometry" />
        </mxCell>
        <mxCell id="5xbRwKJ2WwBKWeslkSZ9-58" value="" style="endArrow=open;html=1;rounded=0;dashed=1;endFill=0;" edge="1" parent="1" source="5xbRwKJ2WwBKWeslkSZ9-52">
          <mxGeometry width="50" height="50" relative="1" as="geometry">
            <mxPoint x="510" y="450" as="sourcePoint" />
            <mxPoint x="533" y="275" as="targetPoint" />
            <Array as="points">
              <mxPoint x="580" y="145" />
              <mxPoint x="580" y="275" />
            </Array>
          </mxGeometry>
        </mxCell>
        <mxCell id="5xbRwKJ2WwBKWeslkSZ9-59" value="" style="endArrow=open;html=1;rounded=0;dashed=1;entryX=0.47;entryY=0.509;entryDx=0;entryDy=0;entryPerimeter=0;endFill=0;" edge="1" parent="1" source="5xbRwKJ2WwBKWeslkSZ9-52" target="5xbRwKJ2WwBKWeslkSZ9-46">
          <mxGeometry width="50" height="50" relative="1" as="geometry">
            <mxPoint x="545" y="156" as="sourcePoint" />
            <mxPoint x="543" y="285" as="targetPoint" />
            <Array as="points">
              <mxPoint x="580" y="145" />
              <mxPoint x="580" y="396" />
            </Array>
          </mxGeometry>
        </mxCell>
        <mxCell id="5xbRwKJ2WwBKWeslkSZ9-60" value="" style="endArrow=open;html=1;rounded=0;dashed=1;entryX=0.507;entryY=0.509;entryDx=0;entryDy=0;entryPerimeter=0;endFill=0;" edge="1" parent="1" source="5xbRwKJ2WwBKWeslkSZ9-52" target="5xbRwKJ2WwBKWeslkSZ9-49">
          <mxGeometry width="50" height="50" relative="1" as="geometry">
            <mxPoint x="533" y="145" as="sourcePoint" />
            <mxPoint x="536" y="422" as="targetPoint" />
            <Array as="points">
              <mxPoint x="580" y="145" />
              <mxPoint x="580" y="496" />
            </Array>
          </mxGeometry>
        </mxCell>
        <mxCell id="5xbRwKJ2WwBKWeslkSZ9-61" value="&lt;p style=&quot;margin:0px;margin-top:6px;text-align:center;&quot;&gt;&lt;b&gt;Optimisation Backend &amp;lt;&amp;lt;subsystem&amp;gt;&amp;gt;&lt;/b&gt;&lt;/p&gt;&lt;hr size=&quot;1&quot; style=&quot;border-style:solid;&quot;&gt;&lt;p style=&quot;margin:0px;margin-left:8px;&quot;&gt;&lt;br&gt;&lt;/p&gt;" style="align=left;overflow=fill;html=1;dropTarget=0;whiteSpace=wrap;" vertex="1" parent="1">
          <mxGeometry x="935" y="60" width="615" height="355" as="geometry" />
        </mxCell>
        <mxCell id="5xbRwKJ2WwBKWeslkSZ9-62" value="" style="shape=component;jettyWidth=8;jettyHeight=4;" vertex="1" parent="5xbRwKJ2WwBKWeslkSZ9-61">
          <mxGeometry x="1" width="20" height="20" relative="1" as="geometry">
            <mxPoint x="-24" y="4" as="offset" />
          </mxGeometry>
        </mxCell>
        <mxCell id="5xbRwKJ2WwBKWeslkSZ9-65" value="&lt;b&gt;API Controller&lt;/b&gt;" style="html=1;dropTarget=0;whiteSpace=wrap;" vertex="1" parent="1">
          <mxGeometry x="1000" y="205" width="180" height="90" as="geometry" />
        </mxCell>
        <mxCell id="5xbRwKJ2WwBKWeslkSZ9-66" value="" style="shape=module;jettyWidth=8;jettyHeight=4;" vertex="1" parent="5xbRwKJ2WwBKWeslkSZ9-65">
          <mxGeometry x="1" width="20" height="20" relative="1" as="geometry">
            <mxPoint x="-27" y="7" as="offset" />
          </mxGeometry>
        </mxCell>
        <mxCell id="5xbRwKJ2WwBKWeslkSZ9-67" value="&lt;b&gt;Dijkstra&lt;/b&gt;&lt;div&gt;&lt;b&gt;Optimisation Model&lt;/b&gt;&lt;span style=&quot;color: rgba(0, 0, 0, 0); font-family: monospace; font-size: 0px; text-align: start; text-wrap: nowrap;&quot;&gt;%3CmxGraphModel%3E%3Croot%3E%3CmxCell%20id%3D%220%22%2F%3E%3CmxCell%20id%3D%221%22%20parent%3D%220%22%2F%3E%3CmxCell%20id%3D%222%22%20value%3D%22%26lt%3Bb%26gt%3BAPI%20Controller%26lt%3B%2Fb%26gt%3B%22%20style%3D%22html%3D1%3BdropTarget%3D0%3BwhiteSpace%3Dwrap%3B%22%20vertex%3D%221%22%20parent%3D%221%22%3E%3CmxGeometry%20x%3D%22810%22%20y%3D%22360%22%20width%3D%22180%22%20height%3D%2290%22%20as%3D%22geometry%22%2F%3E%3C%2FmxCell%3E%3CmxCell%20id%3D%223%22%20value%3D%22%22%20style%3D%22shape%3Dmodule%3BjettyWidth%3D8%3BjettyHeight%3D4%3B%22%20vertex%3D%221%22%20parent%3D%222%22%3E%3CmxGeometry%20x%3D%221%22%20width%3D%2220%22%20height%3D%2220%22%20relative%3D%221%22%20as%3D%22geometry%22%3E%3CmxPoint%20x%3D%22-27%22%20y%3D%227%22%20as%3D%22offset%22%2F%3E%3C%2FmxGeometry%3E%3C%2FmxCell%3E%3C%2Froot%3E%3C%2FmxGraphModel%3E&lt;/span&gt;&lt;/div&gt;" style="html=1;dropTarget=0;whiteSpace=wrap;" vertex="1" parent="1">
          <mxGeometry x="1330" y="136" width="180" height="90" as="geometry" />
        </mxCell>
        <mxCell id="5xbRwKJ2WwBKWeslkSZ9-68" value="" style="shape=module;jettyWidth=8;jettyHeight=4;" vertex="1" parent="5xbRwKJ2WwBKWeslkSZ9-67">
          <mxGeometry x="1" width="20" height="20" relative="1" as="geometry">
            <mxPoint x="-27" y="7" as="offset" />
          </mxGeometry>
        </mxCell>
        <mxCell id="5xbRwKJ2WwBKWeslkSZ9-69" value="&lt;b&gt;Integer Programming&lt;/b&gt;&lt;div&gt;&lt;b&gt;Optimisation Model&lt;/b&gt;&lt;/div&gt;" style="html=1;dropTarget=0;whiteSpace=wrap;" vertex="1" parent="1">
          <mxGeometry x="1330" y="285" width="180" height="90" as="geometry" />
        </mxCell>
        <mxCell id="5xbRwKJ2WwBKWeslkSZ9-70" value="" style="shape=module;jettyWidth=8;jettyHeight=4;" vertex="1" parent="5xbRwKJ2WwBKWeslkSZ9-69">
          <mxGeometry x="1" width="20" height="20" relative="1" as="geometry">
            <mxPoint x="-27" y="7" as="offset" />
          </mxGeometry>
        </mxCell>
        <mxCell id="5xbRwKJ2WwBKWeslkSZ9-71" value="" style="html=1;rounded=0;" vertex="1" parent="1">
          <mxGeometry x="1300" y="165" width="30" height="30" as="geometry" />
        </mxCell>
        <mxCell id="5xbRwKJ2WwBKWeslkSZ9-78" value="" style="html=1;rounded=0;" vertex="1" parent="1">
          <mxGeometry x="1300" y="315" width="30" height="30" as="geometry" />
        </mxCell>
        <mxCell id="5xbRwKJ2WwBKWeslkSZ9-81" value="" style="html=1;rounded=0;" vertex="1" parent="1">
          <mxGeometry x="1180" y="235" width="30" height="30" as="geometry" />
        </mxCell>
        <mxCell id="5xbRwKJ2WwBKWeslkSZ9-82" value="" style="endArrow=none;html=1;rounded=0;align=center;verticalAlign=top;endFill=0;labelBackgroundColor=none;endSize=2;" edge="1" source="5xbRwKJ2WwBKWeslkSZ9-81" target="5xbRwKJ2WwBKWeslkSZ9-83" parent="1">
          <mxGeometry relative="1" as="geometry" />
        </mxCell>
        <mxCell id="5xbRwKJ2WwBKWeslkSZ9-83" value="" style="ellipse;html=1;fontSize=11;align=center;fillColor=none;points=[];aspect=fixed;resizable=0;verticalAlign=bottom;labelPosition=center;verticalLabelPosition=top;flipH=1;" vertex="1" parent="1">
          <mxGeometry x="1232" y="246" width="8" height="8" as="geometry" />
        </mxCell>
        <mxCell id="5xbRwKJ2WwBKWeslkSZ9-95" value="" style="rounded=0;orthogonalLoop=1;jettySize=auto;html=1;endArrow=halfCircle;endFill=0;endSize=6;strokeWidth=1;sketch=0;" edge="1" target="5xbRwKJ2WwBKWeslkSZ9-97" parent="1" source="5xbRwKJ2WwBKWeslkSZ9-83">
          <mxGeometry relative="1" as="geometry">
            <mxPoint x="1180" y="220" as="sourcePoint" />
          </mxGeometry>
        </mxCell>
        <mxCell id="5xbRwKJ2WwBKWeslkSZ9-96" value="" style="rounded=0;orthogonalLoop=1;jettySize=auto;html=1;endArrow=oval;endFill=0;sketch=0;sourcePerimeterSpacing=0;targetPerimeterSpacing=0;endSize=10;exitX=0;exitY=0.5;exitDx=0;exitDy=0;" edge="1" target="5xbRwKJ2WwBKWeslkSZ9-97" parent="1" source="5xbRwKJ2WwBKWeslkSZ9-71">
          <mxGeometry relative="1" as="geometry">
            <mxPoint x="1140" y="220" as="sourcePoint" />
          </mxGeometry>
        </mxCell>
        <mxCell id="5xbRwKJ2WwBKWeslkSZ9-97" value="" style="ellipse;whiteSpace=wrap;html=1;align=center;aspect=fixed;fillColor=none;strokeColor=none;resizable=0;perimeter=centerPerimeter;rotatable=0;allowArrows=0;points=[];outlineConnect=1;" vertex="1" parent="1">
          <mxGeometry x="1232" y="175" width="10" height="10" as="geometry" />
        </mxCell>
        <mxCell id="5xbRwKJ2WwBKWeslkSZ9-98" value="" style="rounded=0;orthogonalLoop=1;jettySize=auto;html=1;endArrow=halfCircle;endFill=0;endSize=6;strokeWidth=1;sketch=0;" edge="1" target="5xbRwKJ2WwBKWeslkSZ9-100" parent="1" source="5xbRwKJ2WwBKWeslkSZ9-83">
          <mxGeometry relative="1" as="geometry">
            <mxPoint x="1290" y="260" as="sourcePoint" />
          </mxGeometry>
        </mxCell>
        <mxCell id="5xbRwKJ2WwBKWeslkSZ9-99" value="" style="rounded=0;orthogonalLoop=1;jettySize=auto;html=1;endArrow=oval;endFill=0;sketch=0;sourcePerimeterSpacing=0;targetPerimeterSpacing=0;endSize=10;exitX=0;exitY=0.5;exitDx=0;exitDy=0;" edge="1" target="5xbRwKJ2WwBKWeslkSZ9-100" parent="1" source="5xbRwKJ2WwBKWeslkSZ9-78">
          <mxGeometry relative="1" as="geometry">
            <mxPoint x="1250" y="260" as="sourcePoint" />
          </mxGeometry>
        </mxCell>
        <mxCell id="5xbRwKJ2WwBKWeslkSZ9-100" value="" style="ellipse;whiteSpace=wrap;html=1;align=center;aspect=fixed;fillColor=none;strokeColor=none;resizable=0;perimeter=centerPerimeter;rotatable=0;allowArrows=0;points=[];outlineConnect=1;" vertex="1" parent="1">
          <mxGeometry x="1230" y="325" width="10" height="10" as="geometry" />
        </mxCell>
        <mxCell id="5xbRwKJ2WwBKWeslkSZ9-109" style="edgeStyle=orthogonalEdgeStyle;rounded=0;orthogonalLoop=1;jettySize=auto;html=1;exitX=1;exitY=0.5;exitDx=0;exitDy=0;endArrow=none;endFill=0;entryX=1.049;entryY=0.528;entryDx=0;entryDy=0;entryPerimeter=0;" edge="1" parent="1" source="5xbRwKJ2WwBKWeslkSZ9-101" target="5xbRwKJ2WwBKWeslkSZ9-106">
          <mxGeometry relative="1" as="geometry" />
        </mxCell>
        <mxCell id="5xbRwKJ2WwBKWeslkSZ9-101" value="" style="html=1;rounded=0;" vertex="1" parent="1">
          <mxGeometry x="905" y="235" width="30" height="30" as="geometry" />
        </mxCell>
        <mxCell id="5xbRwKJ2WwBKWeslkSZ9-102" value="" style="endArrow=none;html=1;rounded=0;align=center;verticalAlign=top;endFill=0;labelBackgroundColor=none;endSize=2;" edge="1" source="5xbRwKJ2WwBKWeslkSZ9-101" target="5xbRwKJ2WwBKWeslkSZ9-103" parent="1">
          <mxGeometry relative="1" as="geometry" />
        </mxCell>
        <mxCell id="5xbRwKJ2WwBKWeslkSZ9-103" value="" style="ellipse;html=1;fontSize=11;align=center;fillColor=none;points=[];aspect=fixed;resizable=0;verticalAlign=bottom;labelPosition=center;verticalLabelPosition=top;flipH=1;" vertex="1" parent="1">
          <mxGeometry x="870" y="246" width="8" height="8" as="geometry" />
        </mxCell>
        <mxCell id="5xbRwKJ2WwBKWeslkSZ9-104" value="" style="html=1;rounded=0;" vertex="1" parent="1">
          <mxGeometry x="970" y="235" width="30" height="30" as="geometry" />
        </mxCell>
        <mxCell id="5xbRwKJ2WwBKWeslkSZ9-105" value="" style="endArrow=none;html=1;rounded=0;align=center;verticalAlign=top;endFill=0;labelBackgroundColor=none;endSize=2;" edge="1" source="5xbRwKJ2WwBKWeslkSZ9-104" target="5xbRwKJ2WwBKWeslkSZ9-106" parent="1">
          <mxGeometry relative="1" as="geometry" />
        </mxCell>
        <mxCell id="5xbRwKJ2WwBKWeslkSZ9-106" value="" style="ellipse;html=1;fontSize=11;align=center;fillColor=none;points=[];aspect=fixed;resizable=0;verticalAlign=bottom;labelPosition=center;verticalLabelPosition=top;flipH=1;" vertex="1" parent="1">
          <mxGeometry x="950" y="246" width="8" height="8" as="geometry" />
        </mxCell>
        <mxCell id="5xbRwKJ2WwBKWeslkSZ9-110" value="" style="html=1;rounded=0;" vertex="1" parent="1">
          <mxGeometry x="475" y="520" width="30" height="30" as="geometry" />
        </mxCell>
        <mxCell id="5xbRwKJ2WwBKWeslkSZ9-111" value="" style="endArrow=none;html=1;rounded=0;align=center;verticalAlign=top;endFill=0;labelBackgroundColor=none;endSize=2;" edge="1" source="5xbRwKJ2WwBKWeslkSZ9-110" target="5xbRwKJ2WwBKWeslkSZ9-112" parent="1">
          <mxGeometry relative="1" as="geometry" />
        </mxCell>
        <mxCell id="5xbRwKJ2WwBKWeslkSZ9-117" value="" style="edgeStyle=orthogonalEdgeStyle;rounded=0;orthogonalLoop=1;jettySize=auto;html=1;endArrow=none;endFill=0;" edge="1" parent="1" source="5xbRwKJ2WwBKWeslkSZ9-112" target="5xbRwKJ2WwBKWeslkSZ9-113">
          <mxGeometry relative="1" as="geometry">
            <mxPoint x="590.0000000000001" y="535" as="targetPoint" />
          </mxGeometry>
        </mxCell>
        <mxCell id="5xbRwKJ2WwBKWeslkSZ9-112" value="" style="shape=requiredInterface;html=1;fontSize=11;align=center;fillColor=none;points=[];aspect=fixed;resizable=0;verticalAlign=bottom;labelPosition=center;verticalLabelPosition=top;flipH=1;" vertex="1" parent="1">
          <mxGeometry x="530" y="530" width="5" height="10" as="geometry" />
        </mxCell>
        <mxCell id="5xbRwKJ2WwBKWeslkSZ9-113" value="" style="html=1;rounded=0;" vertex="1" parent="1">
          <mxGeometry x="680" y="520" width="30" height="30" as="geometry" />
        </mxCell>
        <mxCell id="5xbRwKJ2WwBKWeslkSZ9-114" value="" style="endArrow=none;html=1;rounded=0;align=center;verticalAlign=top;endFill=0;labelBackgroundColor=none;endSize=2;" edge="1" source="5xbRwKJ2WwBKWeslkSZ9-113" target="5xbRwKJ2WwBKWeslkSZ9-115" parent="1">
          <mxGeometry relative="1" as="geometry" />
        </mxCell>
        <mxCell id="5xbRwKJ2WwBKWeslkSZ9-119" value="" style="edgeStyle=orthogonalEdgeStyle;rounded=0;orthogonalLoop=1;jettySize=auto;html=1;entryX=0.679;entryY=0.536;entryDx=0;entryDy=0;entryPerimeter=0;dashed=1;endArrow=open;endFill=0;" edge="1" parent="1" source="5xbRwKJ2WwBKWeslkSZ9-115" target="5xbRwKJ2WwBKWeslkSZ9-103">
          <mxGeometry relative="1" as="geometry">
            <mxPoint x="827.5000000000002" y="535" as="targetPoint" />
            <Array as="points">
              <mxPoint x="810" y="535" />
              <mxPoint x="810" y="250" />
            </Array>
          </mxGeometry>
        </mxCell>
        <mxCell id="5xbRwKJ2WwBKWeslkSZ9-115" value="" style="shape=requiredInterface;html=1;fontSize=11;align=center;fillColor=none;points=[];aspect=fixed;resizable=0;verticalAlign=bottom;labelPosition=center;verticalLabelPosition=top;flipH=1;" vertex="1" parent="1">
          <mxGeometry x="740" y="530" width="5" height="10" as="geometry" />
        </mxCell>
        <mxCell id="5xbRwKJ2WwBKWeslkSZ9-122" value="" style="edgeStyle=orthogonalEdgeStyle;rounded=0;orthogonalLoop=1;jettySize=auto;html=1;endArrow=none;endFill=0;" edge="1" parent="1" source="5xbRwKJ2WwBKWeslkSZ9-120" target="5xbRwKJ2WwBKWeslkSZ9-34">
          <mxGeometry relative="1" as="geometry" />
        </mxCell>
        <mxCell id="5xbRwKJ2WwBKWeslkSZ9-120" value="" style="ellipse;html=1;fontSize=11;align=center;fillColor=none;points=[];aspect=fixed;resizable=0;verticalAlign=bottom;labelPosition=center;verticalLabelPosition=top;flipH=1;" vertex="1" parent="1">
          <mxGeometry x="250" y="151" width="8" height="8" as="geometry" />
        </mxCell>
        <mxCell id="5xbRwKJ2WwBKWeslkSZ9-123" style="edgeStyle=orthogonalEdgeStyle;rounded=0;orthogonalLoop=1;jettySize=auto;html=1;exitX=1;exitY=0.5;exitDx=0;exitDy=0;endArrow=none;endFill=0;" edge="1" parent="1" source="5xbRwKJ2WwBKWeslkSZ9-124" target="5xbRwKJ2WwBKWeslkSZ9-131">
          <mxGeometry relative="1" as="geometry" />
        </mxCell>
        <mxCell id="5xbRwKJ2WwBKWeslkSZ9-124" value="" style="html=1;rounded=0;" vertex="1" parent="1">
          <mxGeometry x="180" y="270" width="30" height="30" as="geometry" />
        </mxCell>
        <mxCell id="5xbRwKJ2WwBKWeslkSZ9-125" value="" style="endArrow=none;html=1;rounded=0;align=center;verticalAlign=top;endFill=0;labelBackgroundColor=none;endSize=2;" edge="1" parent="1" source="5xbRwKJ2WwBKWeslkSZ9-124" target="5xbRwKJ2WwBKWeslkSZ9-126">
          <mxGeometry relative="1" as="geometry" />
        </mxCell>
        <mxCell id="5xbRwKJ2WwBKWeslkSZ9-126" value="Network Visualisation&lt;div&gt;View&lt;/div&gt;" style="ellipse;html=1;fontSize=11;align=center;fillColor=none;points=[];aspect=fixed;resizable=0;verticalAlign=bottom;labelPosition=center;verticalLabelPosition=top;flipH=1;" vertex="1" parent="1">
          <mxGeometry x="120" y="281" width="8" height="8" as="geometry" />
        </mxCell>
        <mxCell id="5xbRwKJ2WwBKWeslkSZ9-127" value="" style="endArrow=none;html=1;rounded=0;align=center;verticalAlign=top;endFill=0;labelBackgroundColor=none;endSize=2;entryX=0.085;entryY=0.164;entryDx=0;entryDy=0;entryPerimeter=0;" edge="1" parent="1">
          <mxGeometry relative="1" as="geometry">
            <mxPoint x="250" y="285" as="sourcePoint" />
            <mxPoint x="250" y="285" as="targetPoint" />
          </mxGeometry>
        </mxCell>
        <mxCell id="5xbRwKJ2WwBKWeslkSZ9-128" value="" style="fontStyle=0;labelPosition=right;verticalLabelPosition=middle;align=left;verticalAlign=middle;spacingLeft=2;" vertex="1" parent="1">
          <mxGeometry x="290" y="270" width="30" height="30" as="geometry" />
        </mxCell>
        <mxCell id="5xbRwKJ2WwBKWeslkSZ9-129" value="" style="ellipse;whiteSpace=wrap;html=1;align=center;aspect=fixed;fillColor=none;strokeColor=none;resizable=0;perimeter=centerPerimeter;rotatable=0;allowArrows=0;points=[];outlineConnect=1;" vertex="1" parent="1">
          <mxGeometry x="250" y="280" width="10" height="10" as="geometry" />
        </mxCell>
        <mxCell id="5xbRwKJ2WwBKWeslkSZ9-130" value="" style="edgeStyle=orthogonalEdgeStyle;rounded=0;orthogonalLoop=1;jettySize=auto;html=1;endArrow=none;endFill=0;" edge="1" parent="1" source="5xbRwKJ2WwBKWeslkSZ9-131" target="5xbRwKJ2WwBKWeslkSZ9-128">
          <mxGeometry relative="1" as="geometry" />
        </mxCell>
        <mxCell id="5xbRwKJ2WwBKWeslkSZ9-131" value="" style="ellipse;html=1;fontSize=11;align=center;fillColor=none;points=[];aspect=fixed;resizable=0;verticalAlign=bottom;labelPosition=center;verticalLabelPosition=top;flipH=1;" vertex="1" parent="1">
          <mxGeometry x="250" y="281" width="8" height="8" as="geometry" />
        </mxCell>
        <mxCell id="5xbRwKJ2WwBKWeslkSZ9-133" style="edgeStyle=orthogonalEdgeStyle;rounded=0;orthogonalLoop=1;jettySize=auto;html=1;exitX=1;exitY=0.5;exitDx=0;exitDy=0;endArrow=none;endFill=0;" edge="1" parent="1" source="5xbRwKJ2WwBKWeslkSZ9-134" target="5xbRwKJ2WwBKWeslkSZ9-141">
          <mxGeometry relative="1" as="geometry" />
        </mxCell>
        <mxCell id="5xbRwKJ2WwBKWeslkSZ9-134" value="" style="html=1;rounded=0;" vertex="1" parent="1">
          <mxGeometry x="180" y="385" width="30" height="30" as="geometry" />
        </mxCell>
        <mxCell id="5xbRwKJ2WwBKWeslkSZ9-135" value="" style="endArrow=none;html=1;rounded=0;align=center;verticalAlign=top;endFill=0;labelBackgroundColor=none;endSize=2;" edge="1" parent="1" source="5xbRwKJ2WwBKWeslkSZ9-134" target="5xbRwKJ2WwBKWeslkSZ9-136">
          <mxGeometry relative="1" as="geometry" />
        </mxCell>
        <mxCell id="5xbRwKJ2WwBKWeslkSZ9-136" value="Report Generator&lt;div&gt;View&lt;/div&gt;" style="ellipse;html=1;fontSize=11;align=center;fillColor=none;points=[];aspect=fixed;resizable=0;verticalAlign=bottom;labelPosition=center;verticalLabelPosition=top;flipH=1;" vertex="1" parent="1">
          <mxGeometry x="120" y="396" width="8" height="8" as="geometry" />
        </mxCell>
        <mxCell id="5xbRwKJ2WwBKWeslkSZ9-137" value="" style="endArrow=none;html=1;rounded=0;align=center;verticalAlign=top;endFill=0;labelBackgroundColor=none;endSize=2;entryX=0.085;entryY=0.164;entryDx=0;entryDy=0;entryPerimeter=0;" edge="1" parent="1">
          <mxGeometry relative="1" as="geometry">
            <mxPoint x="250" y="400" as="sourcePoint" />
            <mxPoint x="250" y="400" as="targetPoint" />
          </mxGeometry>
        </mxCell>
        <mxCell id="5xbRwKJ2WwBKWeslkSZ9-138" value="" style="fontStyle=0;labelPosition=right;verticalLabelPosition=middle;align=left;verticalAlign=middle;spacingLeft=2;" vertex="1" parent="1">
          <mxGeometry x="290" y="385" width="30" height="30" as="geometry" />
        </mxCell>
        <mxCell id="5xbRwKJ2WwBKWeslkSZ9-139" value="" style="ellipse;whiteSpace=wrap;html=1;align=center;aspect=fixed;fillColor=none;strokeColor=none;resizable=0;perimeter=centerPerimeter;rotatable=0;allowArrows=0;points=[];outlineConnect=1;" vertex="1" parent="1">
          <mxGeometry x="250" y="395" width="10" height="10" as="geometry" />
        </mxCell>
        <mxCell id="5xbRwKJ2WwBKWeslkSZ9-140" value="" style="edgeStyle=orthogonalEdgeStyle;rounded=0;orthogonalLoop=1;jettySize=auto;html=1;endArrow=none;endFill=0;" edge="1" parent="1" source="5xbRwKJ2WwBKWeslkSZ9-141" target="5xbRwKJ2WwBKWeslkSZ9-138">
          <mxGeometry relative="1" as="geometry" />
        </mxCell>
        <mxCell id="5xbRwKJ2WwBKWeslkSZ9-141" value="" style="ellipse;html=1;fontSize=11;align=center;fillColor=none;points=[];aspect=fixed;resizable=0;verticalAlign=bottom;labelPosition=center;verticalLabelPosition=top;flipH=1;" vertex="1" parent="1">
          <mxGeometry x="250" y="396" width="8" height="8" as="geometry" />
        </mxCell>
        <mxCell id="5xbRwKJ2WwBKWeslkSZ9-142" style="edgeStyle=orthogonalEdgeStyle;rounded=0;orthogonalLoop=1;jettySize=auto;html=1;exitX=1;exitY=0.5;exitDx=0;exitDy=0;endArrow=none;endFill=0;" edge="1" parent="1" source="5xbRwKJ2WwBKWeslkSZ9-143" target="5xbRwKJ2WwBKWeslkSZ9-150">
          <mxGeometry relative="1" as="geometry" />
        </mxCell>
        <mxCell id="5xbRwKJ2WwBKWeslkSZ9-143" value="" style="html=1;rounded=0;" vertex="1" parent="1">
          <mxGeometry x="180" y="500" width="30" height="30" as="geometry" />
        </mxCell>
        <mxCell id="5xbRwKJ2WwBKWeslkSZ9-144" value="" style="endArrow=none;html=1;rounded=0;align=center;verticalAlign=top;endFill=0;labelBackgroundColor=none;endSize=2;" edge="1" parent="1" source="5xbRwKJ2WwBKWeslkSZ9-143" target="5xbRwKJ2WwBKWeslkSZ9-145">
          <mxGeometry relative="1" as="geometry" />
        </mxCell>
        <mxCell id="5xbRwKJ2WwBKWeslkSZ9-145" value="Optimisation&lt;div&gt;View&lt;/div&gt;" style="ellipse;html=1;fontSize=11;align=center;fillColor=none;points=[];aspect=fixed;resizable=0;verticalAlign=bottom;labelPosition=center;verticalLabelPosition=top;flipH=1;" vertex="1" parent="1">
          <mxGeometry x="120" y="511" width="8" height="8" as="geometry" />
        </mxCell>
        <mxCell id="5xbRwKJ2WwBKWeslkSZ9-146" value="" style="endArrow=none;html=1;rounded=0;align=center;verticalAlign=top;endFill=0;labelBackgroundColor=none;endSize=2;entryX=0.085;entryY=0.164;entryDx=0;entryDy=0;entryPerimeter=0;" edge="1" parent="1">
          <mxGeometry relative="1" as="geometry">
            <mxPoint x="250" y="515" as="sourcePoint" />
            <mxPoint x="250" y="515" as="targetPoint" />
          </mxGeometry>
        </mxCell>
        <mxCell id="5xbRwKJ2WwBKWeslkSZ9-147" value="" style="fontStyle=0;labelPosition=right;verticalLabelPosition=middle;align=left;verticalAlign=middle;spacingLeft=2;" vertex="1" parent="1">
          <mxGeometry x="290" y="500" width="30" height="30" as="geometry" />
        </mxCell>
        <mxCell id="5xbRwKJ2WwBKWeslkSZ9-148" value="" style="ellipse;whiteSpace=wrap;html=1;align=center;aspect=fixed;fillColor=none;strokeColor=none;resizable=0;perimeter=centerPerimeter;rotatable=0;allowArrows=0;points=[];outlineConnect=1;" vertex="1" parent="1">
          <mxGeometry x="250" y="510" width="10" height="10" as="geometry" />
        </mxCell>
        <mxCell id="5xbRwKJ2WwBKWeslkSZ9-149" value="" style="edgeStyle=orthogonalEdgeStyle;rounded=0;orthogonalLoop=1;jettySize=auto;html=1;endArrow=none;endFill=0;" edge="1" parent="1" source="5xbRwKJ2WwBKWeslkSZ9-150" target="5xbRwKJ2WwBKWeslkSZ9-147">
          <mxGeometry relative="1" as="geometry" />
        </mxCell>
        <mxCell id="5xbRwKJ2WwBKWeslkSZ9-150" value="" style="ellipse;html=1;fontSize=11;align=center;fillColor=none;points=[];aspect=fixed;resizable=0;verticalAlign=bottom;labelPosition=center;verticalLabelPosition=top;flipH=1;" vertex="1" parent="1">
          <mxGeometry x="250" y="511" width="8" height="8" as="geometry" />
        </mxCell>
      </root>
    </mxGraphModel>
  </diagram>
</mxfile>
